HIERARCHY
ROOT root
{
	OFFSET 0.000000 0.000000 0.000000
	CHANNELS 6 Xposition Yposition Zposition Zrotation Yrotation Xrotation
	JOINT lhip
	{
		OFFSET 0.058581 -0.082280 -0.017664
		CHANNELS 3 Zrotation Yrotation Xrotation
		JOINT lknee
		{
			OFFSET 0.043451 -0.386469 0.008037
			CHANNELS 3 Zrotation Yrotation Xrotation
			JOINT lankle
			{
				OFFSET -0.014790 -0.426874 -0.037428
				CHANNELS 3 Zrotation Yrotation Xrotation
				JOINT ltoe
				{
					OFFSET 0.041054 -0.060286 0.122042
					CHANNELS 3 Zrotation Yrotation Xrotation
					End Site
					{
						OFFSET 0.000000 0.000000 0.000000
					}
				}
			}
		}
	}
	JOINT rhip
	{
		OFFSET -0.060310 -0.090513 -0.013543
		CHANNELS 3 Zrotation Yrotation Xrotation
		JOINT rknee
		{
			OFFSET -0.043257 -0.383688 -0.004843
			CHANNELS 3 Zrotation Yrotation Xrotation
			JOINT rankle
			{
				OFFSET 0.019056 -0.420046 -0.034562
				CHANNELS 3 Zrotation Yrotation Xrotation
				JOINT rtoe
				{
					OFFSET -0.034840 -0.062106 0.130323
					CHANNELS 3 Zrotation Yrotation Xrotation
					End Site
					{
						OFFSET 0.000000 0.000000 0.000000
					}
				}
			}
		}
	}
	JOINT lowerback
	{
		OFFSET 0.004439 0.124404 -0.038385
		CHANNELS 3 Zrotation Yrotation Xrotation
		JOINT upperback
		{
			OFFSET 0.004488 0.137956 0.026820
			CHANNELS 3 Zrotation Yrotation Xrotation
			JOINT chest
			{
				OFFSET -0.002265 0.056032 0.002855
				CHANNELS 3 Zrotation Yrotation Xrotation
				JOINT lowerneck
				{
					OFFSET -0.013390 0.211636 -0.033468
					CHANNELS 3 Zrotation Yrotation Xrotation
					JOINT upperneck
					{
						OFFSET 0.010113 0.088937 0.050410
						CHANNELS 3 Zrotation Yrotation Xrotation
						End Site
						{
							OFFSET 0.000000 0.000000 0.000000
						}
					}
				}
				JOINT lclavicle
				{
					OFFSET 0.071702 0.114000 -0.018898
					CHANNELS 3 Zrotation Yrotation Xrotation
					JOINT lshoulder
					{
						OFFSET 0.122921 0.045205 -0.019046
						CHANNELS 3 Zrotation Yrotation Xrotation
						JOINT lelbow
						{
							OFFSET 0.255332 -0.015649 -0.022946
							CHANNELS 3 Zrotation Yrotation Xrotation
							JOINT lwrist
							{
								OFFSET 0.265709 0.012698 -0.007375
								CHANNELS 3 Zrotation Yrotation Xrotation
								End Site
								{
									OFFSET 0.000000 0.000000 0.000000
								}
							}
						}
					}
				}
				JOINT rclavicle
				{
					OFFSET -0.082954 0.112472 -0.023707
					CHANNELS 3 Zrotation Yrotation Xrotation
					JOINT rshoulder
					{
						OFFSET -0.113228 0.046853 -0.008472
						CHANNELS 3 Zrotation Yrotation Xrotation
						JOINT relbow
						{
							OFFSET -0.260127 -0.014369 -0.031269
							CHANNELS 3 Zrotation Yrotation Xrotation
							JOINT rwrist
							{
								OFFSET -0.269108 0.006794 -0.006027
								CHANNELS 3 Zrotation Yrotation Xrotation
								End Site
								{
									OFFSET 0.000000 0.000000 0.000000
								}
							}
						}
					}
				}
			}
		}
	}
}
MOTION
Frames: 11
Frame Time: 0.033333
0.279144 0.218606 0.984609 84.994603 1.380521 85.060272 8.112701 2.055868 4.149113 -0.038119 -3.865271 5.756229 0.053698 7.959273 -12.771425 0.000000 -0.000000 0.000000 -9.073885 -3.177306 6.362329 0.989342 -2.754111 -2.930392 3.647142 -4.366243 -5.556224 0.000000 -0.000000 0.000000 -0.293778 0.815265 1.218499 2.380441 -5.216753 6.778825 0.637373 -2.934707 -4.476544 -5.609518 -14.734019 14.038043 8.064136 -18.848784 -16.207395 -21.461787 -4.049207 4.436663 -59.847084 -6.647281 14.257940 9.797055 -19.756959 -0.385780 -16.108673 -16.691522 4.350662 18.988412 11.089709 0.566621 56.615918 3.329588 12.174669 -7.668642 13.415758 0.146682 15.331962 13.346232 -2.797478 
0.278884 0.218641 0.984484 84.944848 1.398954 85.077604 8.105125 1.993130 4.114595 -0.031467 -3.940333 5.784777 0.009442 8.096355 -12.789101 0.000000 -0.000000 0.000000 -9.072807 -3.209497 6.238140 0.989547 -2.711516 -2.798920 3.816518 -4.347311 -5.609142 0.000000 -0.000000 0.000000 -0.207359 0.765111 1.338690 2.260749 -5.181416 6.276001 0.685149 -2.920530 -4.105721 -5.713032 -14.105945 14.111179 7.840862 -18.278411 -16.023024 -21.468726 -4.135577 4.464723 -59.782643 -6.660898 14.191217 9.688728 -19.756704 -0.021119 -15.806756 -16.791933 4.140692 19.191687 11.058874 0.654073 56.410850 3.348269 12.124993 -7.545925 13.398347 0.331163 15.093301 13.425645 -2.839512 
0.278486 0.218669 0.984446 84.835886 1.369324 85.052185 8.079330 2.039329 4.141105 -0.048358 -3.885221 5.762145 0.030576 8.155679 -12.779825 0.000000 -0.000000 0.000000 -9.099002 -3.093082 6.168818 0.989844 -2.739900 -2.720441 3.821589 -4.306381 -5.630108 0.000000 -0.000000 0.000000 -0.205852 0.762885 1.417031 2.203470 -5.100512 6.208865 0.714259 -2.899983 -4.141152 -5.728990 -12.982822 14.105100 7.263552 -17.261125 -15.358925 -21.442427 -4.185917 4.502098 -59.771826 -6.670961 14.149217 9.674423 -19.751511 0.136428 -15.746758 -16.835246 4.051860 19.301730 11.006377 0.834539 56.381626 3.451259 12.138501 -7.537730 13.314400 0.337203 15.164551 13.426291 -2.824821 
0.278236 0.218692 0.984401 84.819986 1.370226 85.004176 8.081492 2.015957 4.178117 -0.065200 -3.911728 5.767899 0.080476 8.221252 -12.789656 0.000000 -0.000000 0.000000 -9.109986 -3.069962 6.198752 1.000597 -2.805912 -2.712094 3.883789 -4.242505 -5.659696 0.000000 -0.000000 0.000000 -0.148599 0.755292 1.498597 2.091252 -5.044878 6.104183 0.780944 -2.892118 -4.251050 -5.653940 -10.398734 14.133124 6.221611 -14.877214 -13.945936 -21.394600 -4.287137 4.659527 -59.793769 -6.610599 14.018886 9.644646 -19.800421 0.425093 -15.426752 -16.937230 3.703804 19.460324 10.842209 1.247195 56.324553 3.709821 12.132492 -7.484159 13.222702 0.320744 15.157701 13.472715 -2.868793 
0.278098 0.218686 0.984351 84.812438 1.373482 84.978187 8.087722 1.995798 4.194436 -0.080501 -3.933483 5.778768 0.119317 8.273108 -12.795570 0.000000 -0.000000 0.000000 -9.116933 -3.063424 6.218904 1.017184 -2.850575 -2.713174 3.934435 -4.199513 -5.683428 0.000000 -0.000000 0.000000 -0.109831 0.769355 1.528277 2.010707 -4.999024 6.044489 0.831468 -2.869294 -4.335896 -5.509849 -8.407142 14.151618 5.579548 -13.032834 -12.941285 -21.364407 -4.369319 4.764832 -59.810624 -6.572804 13.932025 9.609883 -19.815833 0.714086 -15.228493 -17.002526 3.487934 19.584614 10.701192 1.575627 56.257438 3.913995 12.111992 -7.459819 13.191811 0.303952 15.157426 13.511798 -2.923710 
0.277899 0.218720 0.984169 84.797940 1.392422 84.953290 8.113781 1.957343 4.204391 -0.104600 -3.964539 5.790919 0.173396 8.355469 -12.786299 0.000000 -0.000000 0.000000 -9.112871 -3.095325 6.226166 1.034247 -2.887327 -2.711518 3.998921 -4.126086 -5.708506 0.000000 -0.000000 0.000000 -0.027670 0.808252 1.533956 1.891384 -4.934397 6.023501 0.884970 -2.807189 -4.449490 -5.180022 -5.613262 14.189404 4.822615 -10.303782 -11.670763 -21.336694 -4.456046 4.849422 -59.829474 -6.549242 13.800994 9.545618 -19.837852 1.126419 -14.977695 -17.074681 3.222072 19.706895 10.497153 2.033584 56.215137 4.238506 12.076424 -7.452777 13.155364 0.273011 15.187582 13.565293 -3.007278 
0.277696 0.218821 0.983932 84.809940 1.421792 84.918357 8.149710 1.900769 4.226864 -0.127853 -4.009231 5.786093 0.217249 8.439963 -12.768425 0.000000 -0.000000 0.000000 -9.101777 -3.138614 6.252408 1.049268 -2.927393 -2.714971 4.067080 -4.053957 -5.726428 0.000000 -0.000000 0.000000 0.077121 0.858248 1.570857 1.753223 -4.857063 5.973358 0.940452 -2.735251 -4.540183 -4.727167 -2.828061 14.249769 4.234078 -7.438466 -10.569206 -21.358560 -4.565552 4.966565 -59.824126 -6.523352 13.600105 9.514826 -19.922041 1.453411 -14.683443 -17.147805 2.860691 19.739252 10.320741 2.492165 56.261406 4.561545 12.057357 -7.467883 13.102276 0.284967 15.213425 13.592990 -3.143740 
0.277479 0.219054 0.983594 84.863195 1.447910 84.873517 8.185770 1.833840 4.263761 -0.148659 -4.062944 5.762692 0.254296 8.501944 -12.734785 0.000000 -0.000000 0.000000 -9.100718 -3.179003 6.295887 1.065179 -2.988990 -2.722144 4.117531 -4.004668 -5.737448 0.000000 -0.000000 0.000000 0.200115 0.916135 1.623059 1.600784 -4.786032 5.964259 0.970554 -2.675569 -4.611764 -4.159477 -0.205758 14.306192 3.868067 -4.650321 -9.764203 -21.441270 -4.701876 5.087647 -59.768605 -6.518784 13.341179 9.493477 -20.033730 1.698195 -14.407477 -17.200263 2.530509 19.681783 10.185093 2.874528 56.403907 4.875702 12.052465 -7.501681 13.078899 0.340809 15.241504 13.599303 -3.273201 
0.277188 0.219137 0.983449 84.952394 1.468036 84.829019 8.222692 1.775029 4.278703 -0.176650 -4.123378 5.767635 0.302686 8.525642 -12.737042 0.000000 -0.000000 0.000000 -9.105710 -3.207737 6.336043 1.087618 -3.063747 -2.697342 4.158628 -3.976779 -5.773040 0.000000 -0.000000 0.000000 0.259514 0.982948 1.663411 1.486469 -4.722603 6.015466 1.010333 -2.622780 -4.664301 -3.544089 2.075779 14.347099 3.711909 -2.248644 -9.297922 -21.489292 -4.823139 5.125530 -59.712643 -6.486910 13.126645 9.440773 -20.171559 1.925246 -14.233592 -17.236461 2.303826 19.622312 10.074104 3.162769 56.518512 5.152092 12.032915 -7.542329 13.079823 0.338041 15.279345 13.621664 -3.393699 
0.276677 0.219183 0.983393 85.128758 1.486015 84.792424 8.258356 1.691722 4.239974 -0.213656 -4.209057 5.793157 0.347949 8.523934 -12.729807 0.000000 -0.000000 0.000000 -9.108045 -3.243452 6.373555 1.106950 -3.178601 -2.661279 4.188014 -3.978989 -5.817452 0.000000 -0.000000 0.000000 0.291242 1.056147 1.749113 1.358704 -4.661472 5.978784 1.042708 -2.569908 -4.643840 -2.766191 4.266689 14.435759 3.802963 0.086257 -9.069661 -21.513842 -4.963470 5.126623 -59.646964 -6.411540 12.925147 9.358878 -20.292525 2.088449 -14.017257 -17.297238 2.025513 19.538485 9.971561 3.400125 56.675221 5.391275 11.997906 -7.660303 13.122904 0.190228 15.222704 13.686618 -3.677852 
0.276196 0.219197 0.983464 85.296208 1.491976 84.780729 8.277547 1.635664 4.186008 -0.241968 -4.288958 5.800590 0.369677 8.502009 -12.714216 0.000000 -0.000000 0.000000 -9.107633 -3.266833 6.396446 1.115166 -3.263991 -2.643634 4.201535 -4.014468 -5.841335 0.000000 -0.000000 0.000000 0.289798 1.113377 1.811993 1.272811 -4.620369 5.917513 1.044773 -2.540987 -4.581569 -2.192026 5.448902 14.523603 4.012925 1.401456 -9.107016 -21.518546 -5.025673 5.076935 -59.599065 -6.352273 12.816613 9.293190 -20.277584 2.167707 -13.926414 -17.317470 1.895323 19.442880 9.899367 3.450957 56.817662 5.528654 11.979508 -7.770380 13.126481 0.038884 15.165145 13.742896 -3.910557 
